#define icon_width 16
#define icon_height 16
#define icon_x_hot 0
#define icon_y_hot 0
static char icon_bits[] = {
  0xFF,0xFF,0xF7,0xEF,0xF3,0xCF,0xF1,0x8F,0xE1,0x87,0xC1,0x83,
  0x01,0x81,0x81,0x80,0x41,0x81,0x03,0xC0,0x07,0xE0,0x0F,0xF0,
  0x1F,0xF8,0x3F,0xFC,0x7F,0xFE,0x7F,0xFE
};